<svg xmlns="http://www.w3.org/2000/svg" width="274" height="86" viewBox="0 0 274 86" role="img" aria-labelledby="title desc">
  <title id="title">시티클린 흰색 로고</title>
  <desc id="desc">흰색 원형 C 심볼과 시티 클린 텍스트 로고</desc>
  <circle cx="43" cy="43" r="35" fill="#fff"/>
  <path fill="#0756d8" d="M48.8 61.5c-12.7 0-21.8-7.9-21.8-18.7 0-10.9 9.1-18.8 21.8-18.8 7.7 0 13.7 2.6 17.1 7.3l-9.7 8.1c-1.8-2.4-4.4-3.7-7.4-3.7-4.7 0-8 2.9-8 7.1 0 4.1 3.3 7 8 7 3.1 0 5.6-1.3 7.4-3.8l9.7 8.2c-3.4 4.7-9.4 7.3-17.1 7.3Z"/>
  <text x="94" y="40" fill="#fff" font-family="Pretendard, 'Noto Sans KR', Arial, sans-serif" font-size="29" font-weight="900" letter-spacing="-1">시티 클린</text>
  <text x="96" y="63" fill="#fff" opacity=".9" font-family="'JetBrains Mono', Consolas, monospace" font-size="14" font-weight="800" letter-spacing="3">CITY CLEAN</text>
</svg>
